<?xml version="1.0" encoding="UTF-8"?>
<svg width="16px" height="16px" viewBox="0 0 16 16" version="1.1" xmlns="http://www.w3.org/2000/svg" xmlns:xlink="http://www.w3.org/1999/xlink">
    <!-- Generator: sketchtool 50.2 (55047) - http://www.bohemiancoding.com/sketch -->
    <title>D6C5EE04-96F8-4E94-9F5D-F2B8F85D15A0</title>
    <desc>Created with sketchtool.</desc>
    <defs></defs>
    <g id="Symbols" stroke="none" stroke-width="1" fill="none" fill-rule="evenodd">
        <g id="icon-cancel" fill="#FFFFFF" fill-rule="nonzero">
            <g id="Shape">
                <path d="M9.42619397,8.00052822 L13.704635,3.72172558 C14.0984706,3.32785666 14.0984706,2.68927061 13.704635,2.29545804 C13.3107994,1.90158912 12.6723236,1.90158912 12.278488,2.29545804 L7.99999061,6.57431702 L3.72149322,2.29540169 C3.32765759,1.90153277 2.68918184,1.90153277 2.29534621,2.29540169 C1.90156691,2.68927061 1.90156691,3.32785666 2.29534621,3.72166924 L6.57384359,8.00047187 L2.29534621,12.2793308 C1.90156691,12.6731998 1.90156691,13.3117858 2.29534621,13.7055984 C2.68918184,14.0994673 3.32765759,14.0994673 3.72149322,13.7055984 L7.99999061,9.42673941 L12.278488,13.7055984 C12.6722673,14.0994673 13.3107994,14.0994673 13.704635,13.7055984 C14.0984706,13.3117295 14.0984706,12.6731998 13.704635,12.2793308 L9.42619397,8.00052822 Z"></path>
            </g>
        </g>
    </g>
</svg>