<?xml version="1.0" encoding="UTF-8"?>
<svg width="16px" height="16px" viewBox="0 0 16 16" version="1.1" xmlns="http://www.w3.org/2000/svg" xmlns:xlink="http://www.w3.org/1999/xlink">
    <!-- Generator: sketchtool 52.2 (67145) - http://www.bohemiancoding.com/sketch -->
    <title>ED542673-46D1-446A-89E9-992534AC4B90</title>
    <desc>Created with sketchtool.</desc>
    <g id="Symbols" stroke="none" stroke-width="1" fill="none" fill-rule="evenodd" stroke-linecap="round" stroke-linejoin="round">
        <g id="icon-send-blue" fill="#032E49" stroke="#032E49" stroke-width="0.5">
            <g id="Mask">
                <path d="M14,7.70440925 C14,7.32327834 13.6856925,7.0143107 13.305364,7.0143107 L4.55333333,7.0143107 C4.55333333,7.0143107 6.96524337,4.53160387 7.09343884,4.0994746 C7.22163432,3.66734534 6.65556858,2.92107854 6,3.00678788 C5.34443142,3.09249722 2,7.0143107 2,7.88735259 C2,8.76039449 5.64763241,12.7606333 6.10607172,12.9600827 C6.56451104,13.1595322 7.18688986,12.5780365 7.09343884,11.9606788 C6.99998782,11.3433212 4.55333333,8.76039449 4.55333333,8.76039449 L13.305364,8.76039449 C13.6890009,8.76039449 14,8.45624991 14,8.07029594 L14,7.70440925 Z" transform="translate(8.000000, 8.000000) scale(-1, 1) rotate(90.000000) translate(-8.000000, -8.000000) "></path>
            </g>
        </g>
    </g>
</svg>