<?xml version="1.0" encoding="UTF-8"?>
<svg width="30px" height="30px" viewBox="0 0 30 30" version="1.1" xmlns="http://www.w3.org/2000/svg" xmlns:xlink="http://www.w3.org/1999/xlink">
    <!-- Generator: sketchtool 52.5 (67469) - http://www.bohemiancoding.com/sketch -->
    <title>5768A454-87C9-4570-8FE9-DC7E6A556091</title>
    <desc>Created with sketchtool.</desc>
    <g id="Page-1" stroke="none" stroke-width="1" fill="none" fill-rule="evenodd">
        <g id="wallet-main" transform="translate(-911.000000, -296.000000)" fill="#FFFFFF" stroke="#FFFFFF">
            <g id="available" transform="translate(562.000000, 147.000000)">
                <g id="icon-sent" transform="translate(349.000000, 149.000000)">
                    <circle id="Oval-4" fill-opacity="0.1" cx="15" cy="15" r="13.6363636"></circle>
                    <g id="padlock" transform="translate(9.400024, 7.500000)" fill-rule="nonzero" stroke-width="0.200000018">
                        <path d="M5.49998524,8 C4.67288257,8 4,8.67623376 4,9.50745569 C4,9.91969928 4.17048642,10.3182954 4.46815127,10.6019557 L4.46815127,11.9629975 C4.46815127,12.5347982 4.93104772,13 5.50001476,13 C6.0689818,13 6.53187825,12.5347982 6.53187825,11.9629975 L6.53187825,10.6019557 C6.8293955,10.3184734 7,9.91978829 7,9.50745569 C6.99994096,8.67623376 6.32702886,8 5.49998524,8 Z M6.030722,10.073382 C5.88751341,10.2089967 5.80538471,10.3985486 5.80538471,10.5934706 L5.80538471,11.9629975 C5.80538471,12.1322562 5.66840515,12.2699179 5.49998524,12.2699179 C5.33159485,12.2699179 5.19458576,12.1322562 5.19458576,11.9629975 L5.19458576,10.5934706 C5.19458576,10.3985783 5.11245707,10.209056 4.96933705,10.073471 C4.81266667,9.92503961 4.72640498,9.72403563 4.72640498,9.50745569 C4.72640498,9.0788351 5.0734297,8.73008206 5.4999262,8.73008206 C5.92642269,8.73008206 6.27344742,9.0788351 6.27344742,9.50745569 C6.27350646,9.72403563 6.18724476,9.92503961 6.030722,10.073382 Z" id="Shape"></path>
                        <path d="M9.90789983,6.14872295 L8.81588843,6.14872295 L8.81588843,3.28336579 C8.81588843,1.47290327 7.32835279,0 5.50002959,0 C3.67164721,0 2.18414116,1.47290327 2.18414116,3.28336579 L2.18414116,6.14872295 L1.09210017,6.14872295 C0.48990801,6.14872295 0,6.63385085 0,7.23010201 L0,13.9186209 C0,14.5149014 0.48990801,15 1.09210017,15 L9.90789983,15 C10.510092,15 11,14.5149014 11,13.9186209 L11,7.23013131 C11,6.63385085 10.510092,6.14872295 9.90789983,6.14872295 Z M2.91216849,3.28336579 C2.91216849,1.87046264 4.07305934,0.720938908 5.5,0.720938908 C6.92691108,0.720938908 8.08780193,1.87046264 8.08780193,3.28336579 L8.08780193,6.14872295 L2.91216849,6.14872295 L2.91216849,3.28336579 Z M10.2719431,13.9186502 C10.2719431,14.1174006 10.1086207,14.2791197 9.90789983,14.2791197 L1.09210017,14.2791197 C0.89137931,14.2791197 0.728056915,14.1174299 0.728056915,13.9186502 L0.728056915,7.23013131 C0.728056915,7.03138092 0.89137931,6.86966185 1.09210017,6.86966185 L9.90789983,6.86966185 C10.1086207,6.86966185 10.2719431,7.03135162 10.2719431,7.23013131 L10.2719431,13.9186502 Z" id="Shape"></path>
                    </g>
                </g>
            </g>
        </g>
    </g>
</svg>