<?xml version="1.0" encoding="UTF-8"?>
<svg width="28px" height="28px" viewBox="0 0 28 28" version="1.1" xmlns="http://www.w3.org/2000/svg" xmlns:xlink="http://www.w3.org/1999/xlink">
    <!-- Generator: sketchtool 52.5 (67469) - http://www.bohemiancoding.com/sketch -->
    <title>B0083C3E-28A0-432B-AEA6-1C837FF93021</title>
    <desc>Created with sketchtool.</desc>
    <g id="Symbols" stroke="none" stroke-width="1" fill="none" fill-rule="evenodd">
        <g id="icon-address-book-active" fill="#00F6D2" fill-rule="nonzero">
            <g id="book-(1)">
                <g transform="translate(2.000000, 0.000000)">
                    <path d="M22.1166877,1.61803906 L20.4059905,1.61803906 L20.4059905,1.26814844 C20.4059905,0.568914062 19.8127579,0 19.0836345,0 L14.3385725,0 C13.6094491,0 13.0162165,0.568914062 13.0162165,1.26814844 L13.0162165,1.61803906 L1.88331231,1.61803906 C0.844884488,1.61803906 0,2.42828906 0,3.42414844 L0,26.1938359 C0,27.18975 0.844884488,28 1.88331231,28 L22.1166877,28 C23.1551155,28 24,27.18975 24,26.1938359 L24,3.42414844 C24.000057,2.42828906 23.1551725,1.61803906 22.1166877,1.61803906 Z M18.6936396,1.64215625 L18.6936396,6.58579687 L17.3107229,5.858125 C17.1229961,5.75930469 16.9170213,5.70986719 16.7111035,5.70986719 C16.5051857,5.70986719 16.2992679,5.75925 16.1116552,5.85807031 L14.7286245,6.58579687 L14.7286245,1.64215625 L18.6936396,1.64215625 Z M2.95931969,26.3578437 L1.88325528,26.3578437 C1.78899272,26.3578437 1.71229391,26.2842891 1.71229391,26.1938359 L1.71229391,3.42414844 C1.71229391,3.33375 1.78899272,3.26019531 1.88325528,3.26019531 L2.95931969,3.26019531 L2.95931969,26.3578437 Z M22.1166877,26.3578437 L4.67172765,26.3578437 L4.67172765,3.26019531 L13.0162165,3.26019531 L13.0162165,7.34103125 C13.0162165,7.76764844 13.2447733,8.15210156 13.6275831,8.36948437 C14.0103928,8.58686719 14.4718403,8.59408594 14.8618352,8.38878906 L16.7110465,7.41573437 L18.5603148,8.38878906 C18.7492391,8.48821094 18.9548717,8.53775781 19.1602193,8.53775781 C19.3788537,8.53775781 19.5971459,8.48153906 19.794624,8.36948437 C20.1774337,8.15215625 20.4059905,7.76770312 20.4059905,7.34103125 L20.4059905,3.26019531 L22.1166877,3.26019531 C22.2109503,3.26019531 22.2876491,3.33375 22.2876491,3.42414844 L22.2876491,26.1938359 L22.2877061,26.1938359 C22.2876491,26.2842344 22.2109503,26.3578437 22.1166877,26.3578437 Z" id="Shape"></path>
                </g>
            </g>
        </g>
    </g>
</svg>