<?xml version="1.0" encoding="UTF-8"?>
<svg width="16px" height="16px" viewBox="0 0 16 16" version="1.1" xmlns="http://www.w3.org/2000/svg" xmlns:xlink="http://www.w3.org/1999/xlink">
    <!-- Generator: sketchtool 50.2 (55047) - http://www.bohemiancoding.com/sketch -->
    <title>C1E73C09-90C9-432A-9BEF-A98F6FD74569</title>
    <desc>Created with sketchtool.</desc>
    <defs></defs>
    <g id="Symbols" stroke="none" stroke-width="1" fill="none" fill-rule="evenodd">
        <g id="icon-actions" fill="#8DA1AD">
            <g id="Combined-Shape">
                <path d="M8.00001831,4.4 C7.33727661,4.4 6.80001831,3.8627417 6.80001831,3.2 C6.80001831,2.5372583 7.33727661,2 8.00001831,2 C8.66276001,2 9.20001831,2.5372583 9.20001831,3.2 C9.20001831,3.8627417 8.66276001,4.4 8.00001831,4.4 Z M8.00001831,9.2 C7.33727661,9.2 6.80001831,8.6627417 6.80001831,8 C6.80001831,7.3372583 7.33727661,6.8 8.00001831,6.8 C8.66276001,6.8 9.20001831,7.3372583 9.20001831,8 C9.20001831,8.6627417 8.66276001,9.2 8.00001831,9.2 Z M8.00001831,14 C7.33727661,14 6.80001831,13.4627417 6.80001831,12.8 C6.80001831,12.1372583 7.33727661,11.6 8.00001831,11.6 C8.66276001,11.6 9.20001831,12.1372583 9.20001831,12.8 C9.20001831,13.4627417 8.66276001,14 8.00001831,14 Z"></path>
            </g>
        </g>
    </g>
</svg>