<?xml version="1.0" encoding="UTF-8"?>
<svg width="16px" height="16px" viewBox="0 0 16 16" version="1.1" xmlns="http://www.w3.org/2000/svg" xmlns:xlink="http://www.w3.org/1999/xlink">
    <!-- Generator: sketchtool 52.5 (67469) - http://www.bohemiancoding.com/sketch -->
    <title>80006708-6880-462C-BBBA-5D78890AC94C</title>
    <desc>Created with sketchtool.</desc>
    <g id="Symbols" stroke="none" stroke-width="1" fill="none" fill-rule="evenodd">
        <g id="icon-swap" fill="#032E49">
            <g id="Mask">
                <path d="M9.94285714,10.7670249 C9.94285714,10.3812908 9.63724066,10.0685914 9.24542746,10.0685914 L2.38552381,10.0685914 C2.38552381,10.0685914 4.31505184,8.08242595 4.41760822,7.73672254 C4.5201646,7.39101913 4.06731201,6.79400569 3.54285714,6.86257316 C3.01840228,6.93114064 0.342857143,10.0685914 0.342857143,10.7670249 C0.342857143,11.4654584 3.26096307,14.6656495 3.62771452,14.8252091 C3.99446597,14.9847686 4.49236903,14.519572 4.41760822,14.0256859 C4.3428474,13.5317998 2.38552381,11.4654584 2.38552381,11.4654584 L9.24542746,11.4654584 C9.63060724,11.4654584 9.94285714,11.1554484 9.94285714,10.7670249 L9.94285714,10.7670249 Z" transform="translate(5.142857, 10.857143) scale(1, -1) rotate(90.000000) translate(-5.142857, -10.857143) "></path>
                <path d="M15.6571429,4.70988208 C15.6571429,4.3241479 15.3515264,4.01144856 14.9597132,4.01144856 L8.09980952,4.01144856 C8.09980952,4.01144856 10.0293376,2.02528309 10.1318939,1.67957968 C10.2344503,1.33387627 9.78159772,0.736862835 9.25714286,0.805430307 C8.73268799,0.873997779 6.05714286,4.01144856 6.05714286,4.70988208 C6.05714286,5.40831559 8.97524878,8.60850661 9.34200024,8.7680662 C9.70875169,8.92762578 10.2066547,8.46242916 10.1318939,7.96854307 C10.0571331,7.47465698 8.09980952,5.40831559 8.09980952,5.40831559 L14.9597132,5.40831559 C15.344893,5.40831559 15.6571429,5.09830552 15.6571429,4.70988208 L15.6571429,4.70988208 Z" transform="translate(10.857143, 4.800000) rotate(90.000000) translate(-10.857143, -4.800000) "></path>
            </g>
        </g>
    </g>
</svg>