<?xml version="1.0" encoding="UTF-8"?>
<svg width="28px" height="28px" viewBox="0 0 28 28" version="1.1" xmlns="http://www.w3.org/2000/svg" xmlns:xlink="http://www.w3.org/1999/xlink">
    <!-- Generator: sketchtool 52.5 (67469) - http://www.bohemiancoding.com/sketch -->
    <title>020EADED-8C06-4BF3-BD36-67C224B72FBF</title>
    <desc>Created with sketchtool.</desc>
    <g id="Symbols" stroke="none" stroke-width="1" fill="none" fill-rule="evenodd">
        <g id="icon-utxo-active" fill="#00F6D2">
            <g id="Mask">
                <path d="M17.4,18.3139968 C17.4,17.9307323 17.0861243,17.620035 16.7075695,17.620035 L4.17466667,17.620035 C4.17466667,17.620035 7.55134072,14.1442454 7.73081438,13.5392644 C7.91028804,12.9342835 7.11779602,11.88951 6.2,12.009503 C5.28220398,12.1294961 0.6,17.620035 0.6,18.8422936 C0.6,20.0645523 5.70668537,25.6648866 6.34850041,25.9441158 C6.99031546,26.2233451 7.86164581,25.409251 7.73081438,24.5449504 C7.59998295,23.6806497 4.17466667,20.0645523 4.17466667,20.0645523 L16.7075695,20.0645523 C17.0899883,20.0645523 17.4,19.7449743 17.4,19.3705905 L17.4,18.3139968 Z" transform="translate(9.000000, 19.000000) scale(1, -1) rotate(90.000000) translate(-9.000000, -19.000000) "></path>
                <path d="M27.4,7.71399678 C27.4,7.33073226 27.0861243,7.02003498 26.7075695,7.02003498 L14.1746667,7.02003498 C14.1746667,7.02003498 17.5513407,3.54424541 17.7308144,2.93926445 C17.910288,2.33428348 17.117796,1.28950996 16.2,1.40950304 C15.282204,1.52949611 10.6,7.02003498 10.6,8.24229363 C10.6,9.46455229 15.7066854,15.0648866 16.3485004,15.3441158 C16.9903155,15.6233451 17.8616458,14.809251 17.7308144,13.9449504 C17.599983,13.0806497 14.1746667,9.46455229 14.1746667,9.46455229 L26.7075695,9.46455229 C27.0899883,9.46455229 27.4,9.14497434 27.4,8.77059048 L27.4,7.71399678 Z" transform="translate(19.000000, 8.400000) rotate(90.000000) translate(-19.000000, -8.400000) "></path>
            </g>
        </g>
    </g>
</svg>