<?xml version="1.0" encoding="UTF-8"?>
<svg width="16px" height="16px" viewBox="0 0 16 16" version="1.1" xmlns="http://www.w3.org/2000/svg" xmlns:xlink="http://www.w3.org/1999/xlink">
    <!-- Generator: sketchtool 50.2 (55047) - http://www.bohemiancoding.com/sketch -->
    <title>C8E340D2-0A2D-4F30-AD6E-1C4979162D5E</title>
    <desc>Created with sketchtool.</desc>
    <defs></defs>
    <g id="Symbols" stroke="none" stroke-width="1" fill="none" fill-rule="evenodd">
        <g id="icon-copy" fill="#032E49" fill-rule="nonzero">
            <g id="Shape">
                <path d="M11.3157895,0 L2.47368421,0 C1.66315789,0 1,0.654545455 1,1.45454545 L1,11.6363636 L2.47368421,11.6363636 L2.47368421,1.45454545 L11.3157895,1.45454545 L11.3157895,0 Z M13.5263158,2.90909091 L5.42105263,2.90909091 C4.61052632,2.90909091 3.94736842,3.56363636 3.94736842,4.36363636 L3.94736842,14.5454545 C3.94736842,15.3454545 4.61052632,16 5.42105263,16 L13.5263158,16 C14.3368421,16 15,15.3454545 15,14.5454545 L15,4.36363636 C15,3.56363636 14.3368421,2.90909091 13.5263158,2.90909091 Z M13.5263158,14.5454545 L5.42105263,14.5454545 L5.42105263,4.36363636 L13.5263158,4.36363636 L13.5263158,14.5454545 Z"></path>
            </g>
        </g>
    </g>
</svg>