<svg xmlns="http://www.w3.org/2000/svg" width="20" height="20" viewBox="0 0 20 20">
    <g fill="#E4F5FF" fill-rule="evenodd">
        <path fill-rule="nonzero" stroke="#E4F5FF" stroke-width=".6" d="M17.286 17.091a.709.709 0 0 0 .714-.703v-5.966c0-1.55-1.282-2.813-2.857-2.813h-.859V5.13C14.284 2.854 12.362 1 10 1 7.636 1 5.713 2.853 5.713 5.13v2.48h-.856C3.282 7.61 2 8.87 2 10.421v5.765C2 17.738 3.282 19 4.857 19h10.286C16.718 19 18 17.738 18 16.187a.709.709 0 0 0-.714-.703.709.709 0 0 0-.715.704 1.42 1.42 0 0 1-1.428 1.406H4.857a1.42 1.42 0 0 1-1.428-1.407v-5.765c0-.776.64-1.406 1.428-1.406h10.286c.788 0 1.428.63 1.428 1.406v5.966c0 .389.32.703.715.703zm-4.43-9.482H7.142V5.13c0-1.501 1.281-2.723 2.857-2.723 1.575 0 2.857 1.222 2.857 2.724v2.48z"/>
        <circle cx="10" cy="13.5" r="1.5"/>
    </g>
</svg>
