<svg xmlns="http://www.w3.org/2000/svg" width="20" height="20" viewBox="0 0 20 20">
    <g fill="#E4F5FF" fill-rule="evenodd">
        <path fill-rule="nonzero" stroke="#E4F5FF" d="M17.605 11.411c-.248 0-.448.2-.448.447v3.968c-.001.74-.603 1.34-1.345 1.34H3.24c-.742 0-1.343-.6-1.344-1.34V4.182c.001-.74.602-1.34 1.344-1.341H7.22a.447.447 0 1 0 0-.894H3.24A2.24 2.24 0 0 0 1 4.182v11.644a2.24 2.24 0 0 0 2.24 2.234h12.572a2.24 2.24 0 0 0 2.24-2.234v-3.968c0-.247-.2-.447-.447-.447z"/>
        <path d="M12.842 1c.523 0 .947.424.947.947v3.316h3.316a.947.947 0 0 1 0 1.895l-3.316-.001v3.317a.947.947 0 0 1-1.894 0V7.157H8.579a.947.947 0 0 1 0-1.894h3.316V1.947c0-.523.424-.947.947-.947z"/>
    </g>
</svg>
