<svg xmlns="http://www.w3.org/2000/svg" width="20" height="20" viewBox="0 0 20 20">
    <g fill="#E4F5FF" fill-rule="nonzero">
        <path d="M10 1c-4.974 0-9 4.025-9 9 0 4.974 4.025 9 9 9 4.974 0 9-4.025 9-9 0-4.974-4.025-9-9-9zm0 16.594A7.59 7.59 0 0 1 2.406 10 7.59 7.59 0 0 1 10 2.406 7.59 7.59 0 0 1 17.594 10 7.59 7.59 0 0 1 10 17.594z"/>
        <path d="M10.66 11.875H9.34L9 5h2l-.34 6.875zm.03 2.852A.977.977 0 0 1 10 15a.991.991 0 0 1-.7-.281.873.873 0 0 1-.3-.656c0-.262.097-.484.29-.665.195-.182.431-.273.71-.273.279 0 .515.09.71.273a.88.88 0 0 1 .29.665c0 .25-.103.471-.31.664z"/>
    </g>
</svg>
