<svg xmlns="http://www.w3.org/2000/svg" width="20" height="20" viewBox="0 0 20 20">
    <path fill="none" fill-rule="nonzero" stroke="#E4F5FF" stroke-width="2" d="M10.007 1c.905 0 1.67.668 1.793 1.565l.005.035c.033.246.001.485-.082.7.627.16 1.22.408 1.766.729a1.374 1.374 0 0 1 .426-.528l.035-.026a1.816 1.816 0 0 1 2.378.166c.64.64.708 1.654.16 2.374l-.02.029c-.146.19-.33.334-.532.428.328.552.583 1.154.75 1.793a1.365 1.365 0 0 1 .649-.063l.043.006a1.816 1.816 0 0 1 1.564 1.799 1.81 1.81 0 0 1-1.565 1.793l-.035.005a1.41 1.41 0 0 1-.632-.057 6.965 6.965 0 0 1-.726 1.807 1.398 1.398 0 0 1 .474.401l.026.035a1.816 1.816 0 0 1-.166 2.378 1.81 1.81 0 0 1-2.374.16l-.029-.02a1.41 1.41 0 0 1-.388-.454 6.77 6.77 0 0 1-1.772.745 1.404 1.404 0 0 1 .043.593l-.006.043A1.816 1.816 0 0 1 9.993 19 1.81 1.81 0 0 1 8.2 17.435l-.005-.035a1.41 1.41 0 0 1 .052-.615 6.796 6.796 0 0 1-1.764-.756 1.376 1.376 0 0 1-.398.47l-.035.026a1.816 1.816 0 0 1-2.378-.166 1.81 1.81 0 0 1-.16-2.374l.02-.029c.144-.188.326-.331.526-.425a6.952 6.952 0 0 1-.719-1.804 1.37 1.37 0 0 1-.674.07l-.043-.005a1.816 1.816 0 0 1-1.564-1.799c0-.905.668-1.67 1.565-1.793l.035-.005c.248-.033.49 0 .707.084a6.965 6.965 0 0 1 .744-1.791 1.378 1.378 0 0 1-.567-.444l-.026-.035a1.816 1.816 0 0 1 .166-2.378 1.81 1.81 0 0 1 2.374-.16l.029.02c.2.153.348.348.442.563a6.738 6.738 0 0 1 1.757-.742 1.39 1.39 0 0 1-.082-.705l.006-.043A1.816 1.816 0 0 1 10.007 1zm.02 11.278c1.203 0 2.183-.993 2.183-2.224 0-1.231-.98-2.224-2.182-2.224-1.203 0-2.183.993-2.183 2.224 0 1.231.98 2.224 2.183 2.224z"/>
</svg>
