<svg xmlns="http://www.w3.org/2000/svg" width="40" height="40" viewBox="0 0 40 40">
    <g fill="#FFF" fill-rule="evenodd" opacity=".3">
        <g fill-rule="nonzero">
            <path d="M38.018 11.43C37.676 10.965 29.532 0 19.13 0 8.73 0 .584 10.964.243 11.43c-.324.443-.324 1.044 0 1.487.341.467 8.486 11.43 18.887 11.43 10.402 0 18.546-10.963 18.888-11.43.324-.443.324-1.044 0-1.486zM19.13 21.83c-7.662 0-14.298-7.278-16.262-9.657C4.83 9.792 11.452 2.52 19.13 2.52c7.662 0 14.297 7.276 16.262 9.656-1.961 2.38-8.583 9.654-16.262 9.654z" transform="translate(1 6.862)"/>
            <path d="M18.627 5.072c-4.164 0-7.551 3.414-7.551 7.61 0 4.195 3.387 7.608 7.551 7.608s7.551-3.413 7.551-7.609c0-4.195-3.387-7.609-7.551-7.609zm0 12.682c-2.776 0-5.034-2.276-5.034-5.073 0-2.797 2.258-5.072 5.034-5.072s5.034 2.275 5.034 5.072-2.258 5.073-5.034 5.073z" transform="translate(1 6.862)"/>
        </g>
        <path d="M35.356 5.889l.95 1.132c.355.423.3 1.054-.123 1.409L5.74 33.974c-.423.355-1.054.3-1.409-.124l-.95-1.132c-.355-.423-.3-1.054.123-1.409L33.947 5.765c.423-.355 1.054-.3 1.409.124z"/>
    </g>
</svg>
