<svg xmlns="http://www.w3.org/2000/svg" width="40" height="40" viewBox="0 0 40 40">
    <g fill="#FFF" fill-rule="evenodd" opacity=".3">
        <path d="M12.838 15.143c1.1 0 1.99.886 1.99 2.004v16.89s4.966-4.825 5.83-5.081c.864-.256 2.357.876 2.186 2.187-.172 1.311-8.015 8-9.762 8-1.746 0-9.746-7.295-10.145-8.212-.399-.917.764-2.162 1.999-1.975 1.235.187 6.4 5.08 6.4 5.08v-16.89c0-1.106.9-2.003 1.991-2.003h-.49zM27.123 24c1.1 0 1.991-.886 1.991-2.004V5.106s4.966 4.824 5.83 5.08c.864.257 2.357-.875 2.185-2.186-.171-1.311-8.015-8-9.76-8-1.747 0-9.747 7.295-10.146 8.212-.4.917.764 2.162 1.998 1.975 1.235-.187 6.401-5.08 6.401-5.08v16.889c0 1.107.9 2.004 1.991 2.004h-.49z"/>
    </g>
</svg>
