<svg xmlns="http://www.w3.org/2000/svg" width="20" height="20" viewBox="0 0 20 20">
    <g fill="none" fill-rule="evenodd">
        <g fill="#FFF">
            <g>
                <g>
                    <path fill-rule="nonzero" d="M12.522 6.438L10.05 8.93V5.08C10.051 2.28 7.797 0 5.026 0 2.255 0 0 2.279 0 5.08v.193h1.513V5.08c0-1.958 1.576-3.55 3.513-3.55 1.936 0 3.512 1.592 3.512 3.55v3.85L6.039 6.437 4.977 7.477l4.317 4.341 4.342-4.341-1.114-1.039z" transform="translate(-99 -659) translate(99 659) translate(3.636 3.636)"/>
                    <path d="M0 7.273H1.455V11.818H0z" transform="translate(-99 -659) translate(99 659) translate(3.636 3.636) matrix(1 0 0 -1 0 19.09)"/>
                </g>
            </g>
        </g>
    </g>
</svg>
