<svg xmlns="http://www.w3.org/2000/svg" width="14" height="14" viewBox="0 0 14 14">
    <g fill="none">
        <path stroke="#042548" stroke-width="1.1" d="M5.263-.55c-.748 0-1.424.384-1.812 1.045L-.26 7.327c-.191.325-.287.682-.29 1.04-.004.36.087.723.275 1.054.19.332.454.595.766.777.313.182.673.281 1.054.281H8.96c.38 0 .747-.1 1.065-.282.317-.181.587-.446.775-.776.188-.33.28-.691.277-1.05-.002-.358-.097-.714-.285-1.034L7.07.484C6.689-.163 6.013-.55 5.263-.55z" transform="translate(1.5 2)"/>
        <path fill="#042548" d="M4.645 3.138c0-.341.277-.617.618-.617.34 0 .617.276.617.617v2.47c0 .34-.276.617-.617.617-.341 0-.618-.277-.618-.617v-2.47zM5.263 8.695c-.51 0-.926-.416-.926-.927 0-.51.415-.926.926-.926.51 0 .926.416.926.926 0 .511-.416.927-.926.927z" transform="translate(1.5 2)"/>
    </g>
</svg>
