<svg xmlns="http://www.w3.org/2000/svg" width="24" height="24" viewBox="0 0 24 24">
    <g fill="none" fill-rule="evenodd">
        <path fill="#042548" d="M-331-13H44v600h-375z"/>
        <g fill="#FFF" transform="translate(-1 10)">
            <circle cx="2.5" cy="2.5" r="2.5"/>
            <circle cx="22.5" cy="2.5" r="2.5"/>
            <circle cx="12.5" cy="2.5" r="2.5"/>
        </g>
        <path fill="#042548" d="M-331-13H44v50h-375z"/>
        <g fill="#92ABBA">
            <path d="M9.742 15.326c.272.272.275.71.004.98l-5.238 5.238s2.967.042 3.307.227c.34.184.448.98 0 1.325-.45.345-4.854-.005-5.383-.534-.53-.53-.743-5.164-.586-5.563.157-.399.886-.424 1.204.007.318.43.4 3.48.4 3.48l5.238-5.238a.697.697 0 0 1 .98.004l.074.074zM14.469 9.742c.272.272.71.275.98.004l5.237-5.238s.043 2.967.228 3.307c.184.34.98.448 1.325 0 .345-.45-.005-4.854-.534-5.383-.53-.53-5.165-.743-5.563-.586-.4.157-.424.886.007 1.204.43.318 3.48.4 3.48.4L14.39 8.688a.697.697 0 0 0 .004.98l.074.074zM14.258 15.326a.692.692 0 0 0-.004.98l5.238 5.238s-2.967.042-3.307.227c-.34.184-.448.98 0 1.325.45.345 4.854-.005 5.383-.534.53-.53.743-5.164.586-5.563-.157-.399-.886-.424-1.204.007-.318.43-.4 3.48-.4 3.48l-5.238-5.238a.697.697 0 0 0-.98.004l-.074.074zM9.531 9.742a.692.692 0 0 1-.98.004L3.314 4.508s-.043 2.967-.228 3.307c-.184.34-.98.448-1.325 0-.345-.45.005-4.854.534-5.383.53-.53 5.165-.743 5.563-.586.4.157.424.886-.007 1.204-.43.318-3.48.4-3.48.4L9.61 8.688c.27.27.264.712-.004.98l-.074.074z"/>
        </g>
    </g>
</svg>
