<svg xmlns="http://www.w3.org/2000/svg" width="15" height="16" viewBox="0 0 15 16">
    <g fill="#032E49" fill-rule="nonzero" stroke="#032E49" stroke-width=".4">
        <path d="M13.831 5.466V3.409c0-1.32-.918-2.356-2.087-2.356H2.557c-1.17 0-2.088 1.036-2.088 2.356v8.2c0 1.32.918 2.357 2.088 2.357h9.187c1.169 0 2.087-1.037 2.087-2.357V9.647c.394-.293.669-.795.669-1.337V6.802c0-.543-.275-1.043-.669-1.336zm-.167 2.844c0 .377-.25.66-.584.66H8.82c-.334 0-.584-.283-.584-.66V6.802c0-.377.25-.66.584-.66h4.26c.334 0 .584.283.584.66V8.31zm-1.92 4.713H2.557c-.668 0-1.253-.66-1.253-1.414v-8.2c0-.754.585-1.414 1.253-1.414h9.187c.668 0 1.252.66 1.252 1.414V5.2H8.82c-.751 0-1.42.755-1.42 1.603V8.31c0 .849.669 1.603 1.42 1.603h4.176v1.696c0 .754-.584 1.414-1.252 1.414z"/>
        <path d="M8.904 7.18c-.084.094-.084.282-.084.376 0 .095 0 .189.084.283.083.094.25.189.334.189.084 0 .167-.095.25-.189.084 0 .168-.188.168-.283 0-.188-.084-.282-.167-.377-.167-.188-.418-.188-.585 0z"/>
    </g>
</svg>
