<svg xmlns="http://www.w3.org/2000/svg" width="24" height="24" viewBox="0 0 24 24">
    <path fill="#00F6D2" fill-rule="nonzero" d="M20.671 1.387h-1.466v-.3c0-.6-.508-1.087-1.133-1.087h-4.068c-.624 0-1.133.488-1.133 1.087v.3H3.329c-.89 0-1.615.694-1.615 1.548v19.517c0 .853.724 1.548 1.615 1.548H20.67c.89 0 1.615-.695 1.615-1.548V2.935c0-.854-.724-1.548-1.615-1.548zm-2.934.02v4.238l-1.185-.624a1.103 1.103 0 0 0-1.028 0l-1.185.624V1.408h3.398zM4.251 22.593h-.922a.144.144 0 0 1-.147-.14V2.935c0-.078.066-.14.147-.14h.922v19.797zm16.42 0H5.72V2.794h7.152v3.498c0 .366.196.696.524.882.328.186.724.192 1.058.016l1.585-.834 1.585.834a1.103 1.103 0 0 0 1.058-.016c.328-.186.524-.516.524-.882V2.794h1.466c.081 0 .147.063.147.141v19.517c0 .077-.066.14-.147.14z"/>
</svg>
