<svg xmlns="http://www.w3.org/2000/svg" width="24" height="24" viewBox="0 0 24 24">
    <g fill="#92ABBA" fill-rule="evenodd">
        <path d="M8.188 9.086c.392 0 .71.315.71.709v10.627s2.978-2.895 3.497-3.048c.518-.154 1.414.525 1.311 1.312-.103.786-4.809 4.8-5.857 4.8-1.047 0-5.847-4.377-6.087-4.928-.24-.55.459-1.297 1.2-1.184.74.112 3.84 3.048 3.84 3.048V9.795c0-.392.309-.71.71-.71h.676zM16.76 14.4c.39 0 .709-.315.709-.71V3.065s2.979 2.894 3.497 3.048c.519.154 1.414-.525 1.312-1.312-.103-.787-4.81-4.8-5.857-4.8-1.048 0-5.848 4.377-6.087 4.927-.24.55.458 1.297 1.199 1.185.74-.112 3.84-3.048 3.84-3.048v10.627c0 .392.31.709.71.709h.676z"/>
    </g>
</svg>
