<svg xmlns="http://www.w3.org/2000/svg" width="24" height="24" viewBox="0 0 24 24">
    <path fill="none" fill-rule="nonzero" stroke="#00F6D2" stroke-width="2" d="M12.218.857a2 2 0 0 1 1.982 1.73l.034.252c.042.303.003.6-.1.866.776.199 1.51.505 2.185.902a1.7 1.7 0 0 1 .528-.653l.216-.163a2 2 0 0 1 2.618.183l.302.301A2 2 0 0 1 20.16 6.9l-.154.203c-.18.236-.406.413-.658.53.407.683.722 1.428.929 2.218a1.733 1.733 0 0 1 .803-.076l.267.037a2 2 0 0 1 1.723 1.981v.426a2 2 0 0 1-1.73 1.982l-.251.034c-.272.037-.538.01-.782-.07a8.625 8.625 0 0 1-.9 2.238 1.714 1.714 0 0 1 .587.496l.163.216a2 2 0 0 1-.183 2.618l-.3.301a2 2 0 0 1-2.625.179l-.203-.154a1.745 1.745 0 0 1-.48-.561 8.391 8.391 0 0 1-2.196.923 1.69 1.69 0 0 1 .055.733l-.037.267a2 2 0 0 1-1.981 1.723h-.426a2 2 0 0 1-1.982-1.73l-.034-.252a1.745 1.745 0 0 1 .063-.76 8.42 8.42 0 0 1-2.184-.937 1.684 1.684 0 0 1-.492.582l-.216.163a2 2 0 0 1-2.618-.183l-.302-.301A2 2 0 0 1 3.84 17.1l.154-.203c.177-.233.402-.41.65-.526a8.601 8.601 0 0 1-.89-2.234 1.702 1.702 0 0 1-.834.088l-.267-.037a2 2 0 0 1-1.723-1.981v-.426A2 2 0 0 1 2.659 9.8l.251-.034c.308-.042.607-.002.876.104a8.624 8.624 0 0 1 .92-2.217 1.734 1.734 0 0 1-.701-.551l-.163-.216a2 2 0 0 1 .183-2.618l.3-.301a2 2 0 0 1 2.625-.179l.203.154c.247.188.43.43.546.695a8.412 8.412 0 0 1 2.177-.918 1.713 1.713 0 0 1-.102-.872l.037-.267A2 2 0 0 1 11.792.857h.426zm-.184 13.963c1.489 0 2.702-1.229 2.702-2.753s-1.213-2.754-2.702-2.754c-1.489 0-2.702 1.23-2.702 2.754s1.213 2.753 2.702 2.753z"/>
</svg>
