<svg xmlns="http://www.w3.org/2000/svg" width="24" height="24" viewBox="0 0 24 24">
    <g fill="#92ABBA" fill-rule="nonzero">
        <path d="M16.286 19.516h-2.118c0 1.132-.542 2.01-1.009 2.01H3.77c-.466 0-1.009-.878-1.009-2.01V5.126c0-1.131.543-2.01 1.01-2.01h9.39c.466 0 1.008.879 1.008 2.01h2.117c0-2.393-1.373-4.268-3.126-4.268H3.77C2.015.858.642 2.733.642 5.127v14.39c0 2.393 1.374 4.269 3.127 4.269h9.39c1.754 0 3.127-1.876 3.127-4.27z"/>
        <path d="M17.468 8.857c0 .289.104.578.31.798l1.326 1.414H8.332c-.585 0-1.06.506-1.06 1.13 0 .624.475 1.13 1.06 1.13h10.844l-1.397 1.49c-.207.22-.31.51-.31.798 0 .289.103.578.31.799a1.012 1.012 0 0 0 1.497 0l3.161-3.372c.207-.221.31-.51.31-.799v-.008-.009c0-.289-.103-.577-.31-.798l-3.161-3.372a1.012 1.012 0 0 0-1.497 0c-.207.221-.31.51-.31.799z"/>
    </g>
</svg>
