<svg xmlns="http://www.w3.org/2000/svg" width="28" height="28" viewBox="0 0 28 28">
    <g fill="none" fill-rule="evenodd" stroke="#8DA1AD">
        <path stroke-linecap="round" stroke-width="2" d="M14 .998C6.82.998 1 6.73 1 13.804c0 7.073 5.82 12.807 13 12.807s13-5.734 13-12.807"/>
        <path fill="#8DA1AD" stroke-width=".2" d="M16.088 13.216c1.132.278 1.706 1.086 1.706 2.4 0 1.101-.428 1.69-1.247 2.072-.085.04-.173.077-.28.12l-.26.102c-.488.192-1.902.261-4.269.213l-.098-.1V10.74l.1-.1h.897l.1.1v6.402c2.674.264 3.978-.254 3.978-1.525 0-1.298-1.008-1.9-3.083-1.807l-.105-.1v-.81l.108-.1c1.922.152 2.798-.372 2.702-1.57-.066-.821-.468-1.284-1.372-1.284H9.96v10.92l-.1.1h-.877l-.1-.1V9.042l.1-.1h5.936c1.382 0 2.484.754 2.553 2.147.048.965-.419 1.678-1.384 2.126z"/>
        <g fill="#8DA1AD" fill-rule="nonzero" stroke-width=".5">
            <path d="M25.569 5.097a.345.345 0 0 0-.348.343v2.6a.528.528 0 0 1-.532.523h-4.837a.528.528 0 0 1-.531-.524V3.274c0-.289.238-.524.531-.524h2.639a.345.345 0 0 0 .348-.342.345.345 0 0 0-.348-.343h-2.639a1.22 1.22 0 0 0-1.227 1.21v4.764c0 .667.55 1.21 1.227 1.21h4.837a1.22 1.22 0 0 0 1.228-1.21V5.44a.345.345 0 0 0-.348-.343zM27.01.628h-2.77a.362.362 0 0 0-.365.36c0 .199.163.36.365.36h2.405v2.369c0 .198.163.36.365.36a.362.362 0 0 0 .365-.36V.988a.362.362 0 0 0-.365-.36z"/>
            <path d="M27.273.729a.352.352 0 0 0-.493 0l-4.845 4.773a.34.34 0 0 0 0 .485.35.35 0 0 0 .493 0l4.845-4.773a.34.34 0 0 0 0-.485z"/>
        </g>
    </g>
</svg>
