<svg xmlns="http://www.w3.org/2000/svg" width="24" height="24" viewBox="0 0 24 24">
    <g fill="none" fill-rule="evenodd" stroke="#00F6D2">
        <path stroke-linecap="round" stroke-width="2" d="M12 .857C5.846.857.857 5.846.857 12c0 6.154 4.989 11.143 11.143 11.143 6.154 0 11.143-4.989 11.143-11.143"/>
        <path fill="#00F6D2" stroke-width=".2" d="M13.828 11.484c.954.252 1.439.957 1.439 2.092 0 .963-.37 1.48-1.077 1.815-.073.035-.15.067-.24.104l-.225.09c-.42.168-1.633.228-3.664.186l-.098-.1V9.333l.1-.1h.769l.1.1v5.558c2.276.227 3.381-.221 3.381-1.315 0-1.12-.856-1.64-2.628-1.56l-.105-.1v-.704l.108-.1c1.64.132 2.382-.318 2.3-1.352-.055-.708-.394-1.105-1.161-1.105H8.552v9.488l-.1.1H7.7l-.1-.1V7.857l.1-.1h5.088c1.19 0 2.143.661 2.202 1.881.041.834-.351 1.453-1.162 1.846z"/>
        <g fill="#00F6D2" fill-rule="nonzero" stroke-width=".5">
            <path d="M21.916 4.424a.298.298 0 0 0-.298.298v2.262a.456.456 0 0 1-.456.455h-4.146a.456.456 0 0 1-.455-.455V2.838c0-.252.204-.456.455-.456h2.262a.298.298 0 0 0 0-.596h-2.262c-.58 0-1.052.472-1.052 1.052v4.146c0 .58.472 1.052 1.052 1.052h4.146c.58 0 1.052-.472 1.052-1.052V4.722a.298.298 0 0 0-.298-.298zM23.151.536h-2.374a.313.313 0 1 0 0 .626h2.061v2.06a.313.313 0 1 0 .626 0V.85a.313.313 0 0 0-.313-.313z"/>
            <path d="M23.377.623a.299.299 0 0 0-.423 0l-4.152 4.153a.299.299 0 1 0 .422.422l4.153-4.153a.299.299 0 0 0 0-.422z"/>
        </g>
    </g>
</svg>
