<svg xmlns="http://www.w3.org/2000/svg" width="41" height="40" viewBox="0 0 41 40">
    <path fill="#FFF" fill-opacity=".3" d="M34.952 2.311H32.51v-.5C32.509.814 31.66 0 30.619 0h-6.778c-1.042 0-1.89.813-1.89 1.812v.5H6.049c-1.484 0-2.69 1.157-2.69 2.58V37.42c0 1.422 1.206 2.58 2.69 2.58h28.904c1.484 0 2.69-1.157 2.69-2.58V4.892c0-1.423-1.206-2.58-2.69-2.58zm-4.89.035v7.062l-1.975-1.04c-.268-.14-.563-.211-.857-.211-.294 0-.588.07-.856.212l-1.976 1.04V2.345h5.664zM7.585 37.654H6.048c-.135 0-.245-.105-.245-.234V4.892c0-.13.11-.235.245-.235h1.537v32.997zm27.367 0H10.031V4.657h11.92v5.83c0 .61.327 1.159.874 1.47.547.31 1.206.32 1.763.027l2.642-1.39 2.642 1.39c.27.142.564.213.857.213.312 0 .624-.08.906-.24.547-.311.874-.86.874-1.47v-5.83h2.443c.135 0 .245.106.245.235V37.42c0 .129-.11.234-.245.234z"/>
</svg>
