<svg xmlns="http://www.w3.org/2000/svg" width="22" height="22" viewBox="0 0 22 22">
    <path fill="#8DA1AD" fill-rule="nonzero" d="M19.47 2.53c-.77-.77-1.698-1.155-2.783-1.155H5.312c-1.084 0-2.012.385-2.782 1.155S1.375 4.228 1.375 5.313v11.374c0 1.085.385 2.012 1.155 2.783.77.77 1.698 1.155 2.782 1.155h11.375c1.085 0 2.012-.385 2.783-1.155.77-.77 1.155-1.698 1.155-2.783V5.313c0-1.085-.385-2.012-1.155-2.783zm-.595 14.157c0 .602-.214 1.117-.643 1.545a2.106 2.106 0 0 1-1.545.643H5.312a2.106 2.106 0 0 1-1.545-.643 2.107 2.107 0 0 1-.642-1.545V5.313c0-.602.214-1.117.642-1.545a2.107 2.107 0 0 1 1.545-.643h11.375c.602 0 1.117.214 1.545.643.429.428.643.943.643 1.545v11.374z"/>
</svg>
