<svg xmlns="http://www.w3.org/2000/svg" width="20" height="20" viewBox="0 0 20 20">
    <g fill="#92ABBA" fill-rule="nonzero">
        <path d="M12.98 7.415l-1.24-.048-.27 7.726 1.242.048zM9.337 7.39h1.242v7.726H9.337zM8.446 15.093l-.269-7.726-1.241.047.269 7.727z"/>
        <path d="M2.567 4.823c0 .36.292.652.653.652h.641l1.027 12.268a.634.634 0 0 0 .619.595h8.882c.322 0 .59-.259.619-.596l1.027-12.267h.662a.653.653 0 0 0 0-1.305H3.22a.653.653 0 0 0-.653.653zm11.253 12.21H6.075L5.108 5.474h9.68l-.968 11.557z"/>
        <path d="M11.987 1.667H7.93c-.57 0-1.035.488-1.035 1.088v2.068h1.242v-1.85h3.644v1.85h1.243V2.755c0-.6-.465-1.088-1.036-1.088z"/>
    </g>
</svg>
