<svg xmlns="http://www.w3.org/2000/svg" width="20" height="20" viewBox="0 0 20 20">
    <g fill="#92ABBA">
        <g>
            <path d="M10.426 3.273L9.185 3.225 8.915 10.952 10.157 10.999zM6.782 3.249H8.024000000000001V10.975H6.782zM5.891 10.952L5.622 3.225 4.381 3.273 4.65 10.999z" transform="translate(2.5 1.667) translate(.055 2.475)"/>
            <path d="M.012.681c0 .36.292.653.653.653h.641l1.027 12.267c.028.337.297.596.619.596h8.882c.322 0 .59-.259.619-.596L13.48 1.334h.662c.36 0 .653-.292.653-.653 0-.36-.292-.653-.653-.653H.665c-.36 0-.653.293-.653.653zm11.253 12.21H3.521L2.553 1.334h9.68l-.968 11.557z" transform="translate(2.5 1.667) translate(.055 2.475)"/>
        </g>
        <path d="M9.487 0H5.43c-.57 0-1.035.488-1.035 1.088v2.068h1.242v-1.85H9.28v1.85h1.243V1.088c0-.6-.465-1.088-1.036-1.088z" transform="translate(2.5 1.667)"/>
    </g>
</svg>
