<svg xmlns="http://www.w3.org/2000/svg" width="20" height="20" viewBox="0 0 20 20">
    <g fill="#92ABBA">
        <path d="M9.914 0C4.448 0 0 4.448 0 9.914c0 5.467 4.448 9.915 9.914 9.915 5.467 0 9.915-4.448 9.915-9.915C19.829 4.448 15.38 0 9.914 0zm0 17.719c-4.303 0-7.805-3.501-7.805-7.805 0-4.303 3.502-7.804 7.805-7.804 4.304 0 7.805 3.5 7.805 7.804s-3.501 7.805-7.805 7.805z"/>
        <path d="M15.081 9.608h-4.455V4.251c0-.45-.366-.816-.817-.816-.45 0-.816.365-.816.816v6.173c0 .451.366.817.816.817h5.272c.451 0 .817-.366.817-.817 0-.45-.366-.816-.817-.816z"/>
    </g>
</svg>
