<svg xmlns="http://www.w3.org/2000/svg" width="16" height="16" viewBox="0 0 16 16">
    <g fill="none" fill-rule="evenodd" transform="translate(-20 -10)">
        <rect width="124" height="35" x=".5" y=".5" stroke="#DA68F5" rx="17.5"/>
        <g fill="#DA68F5" fill-rule="nonzero">
            <path d="M6.861 7.412c-.325.539-.67 1.062-1.082 1.533-.97 1.11-2.234 1.404-3.599 1.329-1.225-.068-1.22 2 0 2.068 2.564.141 4.377-1.064 5.82-3.116-.238-.337-.457-.677-.658-1.004-.166-.269-.326-.543-.48-.81zM8.73 5.906c.135.231.27.46.404.682.248-.371.513-.73.81-1.063.75-.84 1.606-1.186 2.545-1.284l-.177.235c-.343.442-.401 1.066 0 1.502.353.383 1.04.443 1.384 0 .53-.683 1.035-1.387 1.565-2.07.344-.376.476-1.002.05-1.503L13.549.334c-.858-1.009-2.238.497-1.384 1.502l.229.268c-.96.075-1.886.34-2.74.943C9.015 3.497 8.479 4.076 8 4.71c.096.146.192.295.287.45.15.248.3.501.443.746z" transform="translate(20 11)"/>
            <path d="M13.697 8.173c-.166-.208-.411-.302-.66-.302-.268 0-.54.109-.724.302-.4.425-.343 1.033 0 1.464l.178.23c-.939-.096-1.794-.433-2.544-1.253-.427-.466-.788-.982-1.126-1.515-.327-.517-.634-1.05-.96-1.572-.062-.1-.126-.195-.19-.292-1.459-2.215-3.284-3.588-5.89-3.588-.137 0-.276.004-.416.011C.13 1.725.104 3.73 1.305 3.73l.06-.001c.135-.008.27-.011.403-.011 1.25 0 2.4.338 3.302 1.342.554.617.992 1.324 1.42 2.039.203.339.405.68.616 1.013.18.287.369.572.565.85.56.792 1.196 1.525 1.985 2.068.854.588 1.779.846 2.74.919l-.23.262c-.655.75.004 1.789.734 1.789.222 0 .45-.096.65-.325l1.76-2.019c.427-.49.295-1.099-.05-1.465-.528-.666-1.034-1.352-1.563-2.018z" transform="translate(20 11)"/>
        </g>
    </g>
</svg>
