<svg xmlns="http://www.w3.org/2000/svg" width="20" height="20" viewBox="0 0 20 20">
    <g fill="#92ABBA" fill-rule="nonzero">
        <path d="M15.094 8.167h-2.74v1.489h2.74c.815 0 1.447.38 1.447.709v6.603c0 .328-.632.71-1.447.71H4.74c-.815 0-1.447-.382-1.447-.71v-6.603c0-.328.632-.709 1.447-.709h2.739v-1.49h-2.74c-1.722 0-3.071.967-3.071 2.2v6.602c0 1.233 1.35 2.199 3.072 2.199h10.355c1.723 0 3.073-.966 3.073-2.199v-6.603c0-1.233-1.35-2.198-3.073-2.198z"/>
        <path d="M7.169 4.586c.235 0 .47-.074.649-.221l1.15-.942V11.08c0 .415.41.752.918.752.507 0 .918-.337.918-.752V3.37l1.212.994c.18.147.414.22.65.22.234 0 .469-.073.648-.22.359-.294.359-.77 0-1.064l-2.741-2.248a1.026 1.026 0 0 0-.65-.22H9.91c-.235 0-.47.073-.65.22L6.52 3.301c-.36.293-.36.77 0 1.064.179.147.414.22.649.22z"/>
    </g>
</svg>
