<svg xmlns="http://www.w3.org/2000/svg" width="20" height="21" viewBox="0 0 20 21">
    <g fill="#92ABBA">
        <path d="M19.873 6.001C19.694 5.756 15.437 0 10 0 4.563 0 .305 5.756.127 6.001c-.17.233-.17.548 0 .78.178.245 4.436 6.002 9.873 6.002 5.437 0 9.694-5.757 9.873-6.001.17-.233.17-.548 0-.78zM10 11.461c-4.005 0-7.474-3.821-8.5-5.07C2.524 5.14 5.985 1.322 10 1.322c4.005 0 7.473 3.82 8.5 5.07-1.025 1.25-4.486 5.068-8.5 5.068z" transform="translate(0 4.127)"/>
        <path d="M9.737 2.663c-2.177 0-3.948 1.792-3.948 3.995 0 2.202 1.771 3.994 3.948 3.994 2.176 0 3.947-1.792 3.947-3.994 0-2.203-1.77-3.995-3.947-3.995zm0 6.658c-1.451 0-2.632-1.195-2.632-2.663 0-1.469 1.18-2.663 2.632-2.663 1.45 0 2.631 1.194 2.631 2.663 0 1.468-1.18 2.663-2.631 2.663z" transform="translate(0 4.127)"/>
    </g>
</svg>
