<svg xmlns="http://www.w3.org/2000/svg" width="20" height="20" viewBox="0 0 20 20">
    <g fill="#E4F5FF" stroke="#E4F5FF" stroke-width=".6">
        <path d="M14.813 19H4.687C3.757 19 3 18.243 3 17.312V9.438c0-.93.757-1.687 1.688-1.687h10.125c.93 0 1.687.757 1.687 1.688v7.874c0 .931-.758 1.688-1.688 1.688zM4.687 8.875c-.31 0-.562.252-.562.563v7.874c0 .311.253.563.563.563h10.125c.31 0 .562-.252.562-.563V9.438c0-.31-.253-.562-.563-.562H4.688z"/>
        <path d="M13.688 8.875c-.311 0-.563-.252-.563-.563V5.5c0-1.86-1.514-3.375-3.375-3.375-1.86 0-3.375 1.514-3.375 3.375v2.813c0 .31-.252.562-.563.562-.31 0-.562-.252-.562-.563V5.5c0-2.482 2.018-4.5 4.5-4.5s4.5 2.018 4.5 4.5v2.813c0 .31-.252.562-.563.562zM9.75 13.75c-.827 0-1.5-.673-1.5-1.5s.673-1.5 1.5-1.5 1.5.673 1.5 1.5-.673 1.5-1.5 1.5zm0-2.5c-.55 0-1 .448-1 1s.45 1 1 1 1-.448 1-1-.45-1-1-1z"/>
        <path d="M9.75 16c-.31 0-.563-.237-.563-.53v-1.94c0-.293 1.126-.293 1.126 0v1.94c0 .293-.253.53-.563.53z"/>
    </g>
</svg>
