<svg xmlns="http://www.w3.org/2000/svg" width="20" height="20" viewBox="0 0 20 20">
    <g fill="none" fill-rule="evenodd" stroke="#E4F5FF">
        <path stroke-linecap="round" stroke-width="1.5" d="M7.429.571C3.326.571 0 3.897 0 8s3.326 7.429 7.429 7.429h0c4.102 0 7.428-3.326 7.428-7.429" transform="translate(2.714 2)"/>
        <path fill="#E4F5FF" stroke-width=".2" d="M4.462 5.138v7.057h.701V5.803H7.98c.246 0 .416.065.53.173.148.14.163.37-.13 1.256-.27.15-.678.221-1.16.812.581-.026 1.019.044 1.31.221.274.166.407.43-.126 1.522-.373.146-.924.18-1.654.11V6.122h-.713v4.423c1.424.032 2.273-.012 2.618-.15.25-.098.544-.219.745-.492.142-.192.24-.46.24-.852 0-.43-.103-.766-.302-1.01-.146-.18-.346-.312-.6-.393.207-.112.37-.247.487-.405.168-.226.246-.499.23-.82-.013-.267-.087-.485-.272-.664-.16-.153-.407-.278-.785-.372-.718-.178-1.929-.251-3.936-.249z" transform="translate(2.714 2)"/>
        <g fill="#E4F5FF" fill-rule="nonzero" stroke-width=".5">
            <path d="M4.325 2.95c-.11 0-.199.088-.199.198v1.508c0 .167-.136.304-.304.304H1.058c-.167 0-.303-.137-.303-.304V1.892c0-.168.136-.304.303-.304h1.508c.11 0 .199-.089.199-.199 0-.11-.09-.199-.199-.199H1.058c-.386 0-.7.315-.7.702v2.764c0 .387.314.701.7.701h2.764c.387 0 .702-.314.702-.701V3.148c0-.11-.09-.199-.199-.199zM5.148.357H3.566c-.115 0-.209.094-.209.209 0 .115.094.208.209.208H4.94v1.374c0 .116.093.21.208.21.116 0 .21-.094.21-.21V.566c0-.115-.094-.209-.21-.209z" transform="translate(2.714 2) translate(9.714)"/>
            <path d="M5.299.415c-.078-.077-.204-.077-.282 0L2.25 3.184c-.078.078-.078.204 0 .281.039.04.09.059.14.059.052 0 .102-.02.141-.059L5.3.697c.078-.078.078-.204 0-.282z" transform="translate(2.714 2) translate(9.714)"/>
        </g>
    </g>
</svg>
