<svg xmlns="http://www.w3.org/2000/svg" width="20" height="20" viewBox="0 0 20 20">
    <g fill="none" fill-rule="evenodd" stroke="#92ABBA">
        <path stroke-linecap="round" stroke-width="1.5" d="M10.143 2.571a7.429 7.429 0 0 0 0 14.858A7.429 7.429 0 0 0 17.57 10"/>
        <path fill="#92ABBA" stroke-width=".2" d="M11.451 9.648c.598.19.903.664.903 1.403 0 .656-.255 1.011-.737 1.24-.05.023-.1.045-.162.07l-.15.06c-.286.114-1.096.154-2.455.126l-.098-.1V8.222l.1-.1h.512l.1.1v3.675c1.48.143 2.188-.149 2.188-.846 0-.724-.553-1.06-1.718-1.007l-.104-.1v-.47l.108-.099c1.075.086 1.55-.202 1.498-.866-.036-.456-.25-.706-.742-.706H7.877v6.292l-.1.1h-.5l-.1-.1V7.238l.1-.1h3.391c.81 0 1.46.452 1.502 1.286.026.543-.217.954-.719 1.224z"/>
        <g fill="#92ABBA" fill-rule="nonzero" stroke-width=".5">
            <path d="M16.754 4.95a.199.199 0 0 0-.2.198v1.508a.304.304 0 0 1-.303.304h-2.764a.304.304 0 0 1-.304-.304V3.892c0-.168.137-.304.304-.304h1.508a.199.199 0 0 0 0-.398h-1.508a.702.702 0 0 0-.701.702v2.764c0 .387.314.701.701.701h2.764a.702.702 0 0 0 .701-.701V5.148a.199.199 0 0 0-.198-.199zM17.577 2.357h-1.583a.209.209 0 1 0 0 .417h1.374v1.374a.209.209 0 1 0 .418 0V2.566a.209.209 0 0 0-.209-.209z"/>
            <path d="M17.727 2.415a.2.2 0 0 0-.281 0l-2.769 2.769a.2.2 0 1 0 .282.281l2.768-2.768a.2.2 0 0 0 0-.282z"/>
        </g>
    </g>
</svg>
