<svg xmlns="http://www.w3.org/2000/svg" width="20" height="20" viewBox="0 0 20 20">
    <path fill="none" fill-rule="nonzero" stroke="#92ABBA" stroke-width="2" d="M10.006 1.643c.84 0 1.552.62 1.665 1.453l.005.033c.03.227.002.45-.076.649.583.15 1.134.38 1.64.677a1.264 1.264 0 0 1 .395-.49l.033-.024a1.686 1.686 0 0 1 2.208.154 1.68 1.68 0 0 1 .15 2.205l-.02.026c-.135.177-.306.31-.494.398.305.512.541 1.072.697 1.665a1.26 1.26 0 0 1 .602-.058l.04.005a1.686 1.686 0 0 1 1.452 1.67c0 .84-.62 1.552-1.453 1.665l-.033.005a1.308 1.308 0 0 1-.586-.053 6.467 6.467 0 0 1-.675 1.679 1.266 1.266 0 0 1 .44.371l.025.033c.506.671.44 1.613-.154 2.208a1.68 1.68 0 0 1-2.205.15l-.026-.02a1.309 1.309 0 0 1-.361-.421 6.306 6.306 0 0 1-1.646.692 1.29 1.29 0 0 1 .04.55l-.005.04a1.686 1.686 0 0 1-1.67 1.452 1.68 1.68 0 0 1-1.665-1.453l-.005-.033a1.309 1.309 0 0 1 .048-.57 6.313 6.313 0 0 1-1.638-.703 1.272 1.272 0 0 1-.37.436l-.032.025a1.686 1.686 0 0 1-2.208-.154 1.68 1.68 0 0 1-.15-2.205l.02-.026c.134-.176.302-.308.489-.395a6.452 6.452 0 0 1-.668-1.676 1.278 1.278 0 0 1-.626.066l-.04-.005a1.686 1.686 0 0 1-1.452-1.67c0-.84.62-1.552 1.453-1.665l.033-.005c.23-.031.455 0 .657.079a6.466 6.466 0 0 1 .69-1.665 1.25 1.25 0 0 1-.526-.411l-.025-.033a1.686 1.686 0 0 1 .154-2.208 1.68 1.68 0 0 1 2.205-.15l.026.02c.186.142.324.322.41.522a6.3 6.3 0 0 1 1.634-.689 1.26 1.26 0 0 1-.077-.654l.005-.04a1.686 1.686 0 0 1 1.67-1.452zm.02 10.472c1.116 0 2.026-.922 2.026-2.065 0-1.143-.91-2.065-2.026-2.065-1.117 0-2.027.922-2.027 2.065 0 1.143.91 2.065 2.027 2.065z"/>
</svg>
