<svg xmlns="http://www.w3.org/2000/svg" width="20" height="20" viewBox="0 0 20 20">
    <g fill="#92ABBA" fill-rule="evenodd" stroke="#92ABBA" stroke-linecap="round" stroke-linejoin="round" stroke-width=".5">
        <path d="M8.75 13.403c.272.272.275.71 0 .986l-4.279 4.278s2.472.036 2.755.19c.283.153.374.816 0 1.104-.374.287-4.044-.004-4.485-.445-.441-.441-.62-4.304-.489-4.636.131-.332.74-.353 1.004.006.265.359.333 2.9.333 2.9l4.279-4.28c.272-.271.715-.27.985 0l-.103-.103zM12.69 8.75c.271.272.71.275.984 0l4.279-4.279s.036 2.472.19 2.755c.153.283.816.374 1.103 0 .288-.374-.003-4.044-.444-4.485-.441-.441-4.304-.62-4.636-.489-.333.131-.353.74.006 1.004.359.265 2.9.333 2.9.333l-4.28 4.279c-.272.272-.27.715 0 .985l-.103-.103zM12.679 13.403c-.273.272-.276.71 0 .986l4.278 4.278s-2.472.036-2.755.19c-.283.153-.374.816 0 1.104.375.287 4.045-.004 4.486-.445.44-.441.619-4.304.488-4.636-.13-.332-.739-.353-1.003.006-.265.359-.334 2.9-.334 2.9l-4.278-4.28c-.273-.271-.716-.27-.986 0l.104-.103zM8.74 8.75c-.273.272-.71.275-.986 0L3.476 4.471s-.036 2.472-.19 2.755c-.153.283-.816.374-1.104 0-.288-.374.004-4.044.445-4.485.44-.441 4.304-.62 4.636-.489.332.131.353.74-.006 1.004-.36.265-2.9.333-2.9.333l4.28 4.279c.271.272.27.715 0 .985l.102-.103z" transform="translate(-.714 -.714)"/>
    </g>
</svg>
