<svg xmlns="http://www.w3.org/2000/svg" width="20" height="20" viewBox="0 0 20 20">
    <g fill="#92ABBA">
        <path d="M13.427 7.333h-2.74v1.49h2.74c.815 0 1.447.38 1.447.709v6.603c0 .328-.632.709-1.447.709H3.072c-.814 0-1.446-.381-1.446-.71V9.533c0-.328.632-.71 1.446-.71h2.74V7.335h-2.74C1.35 7.334 0 8.299 0 9.532v6.603c0 1.233 1.35 2.198 3.072 2.198h10.356c1.722 0 3.072-.965 3.072-2.198V9.532c0-1.233-1.35-2.199-3.073-2.199z" transform="translate(1.667 .833)"/>
        <path d="M5.502 3.752c.235 0 .47-.073.65-.22L7.3 2.589V10.247c0 .416.41.753.918.753.507 0 .918-.337.918-.753V2.538l1.212.994c.18.147.415.22.65.22.234 0 .47-.073.649-.22.358-.294.358-.77 0-1.065L8.906.22C8.726.073 8.492 0 8.257 0h-.014c-.235 0-.47.073-.649.22L4.852 2.467c-.358.294-.358.77 0 1.065.18.147.415.22.65.22z" transform="translate(1.667 .833)"/>
    </g>
</svg>
