<svg xmlns="http://www.w3.org/2000/svg" width="24" height="24" viewBox="0 0 24 24">
    <g fill="#92ABBA">
        <path d="M16.286 18.66h-2.118c0 1.131-.542 2.01-1.009 2.01H3.77c-.466 0-1.009-.879-1.009-2.01V4.27c0-1.132.543-2.01 1.01-2.01h9.39c.466 0 1.008.878 1.008 2.01h2.117c0-2.394-1.373-4.27-3.126-4.27H3.77C2.015 0 .642 1.877.642 4.27v14.39c0 2.393 1.374 4.269 3.127 4.269h9.39c1.754 0 3.127-1.876 3.127-4.27z" transform="translate(0 .857)"/>
        <path d="M17.468 8c0 .289.104.578.31.798l1.326 1.414H8.332c-.585 0-1.06.506-1.06 1.13 0 .623.475 1.13 1.06 1.13h10.844l-1.397 1.49c-.207.22-.31.51-.31.798 0 .289.103.578.31.799.413.44 1.083.44 1.497 0l3.161-3.373c.207-.22.31-.509.31-.798v-.008-.009c0-.289-.103-.577-.31-.798L19.276 7.2c-.414-.441-1.084-.441-1.497 0-.207.22-.31.51-.31.799z" transform="translate(0 .857)"/>
    </g>
</svg>
