<svg xmlns="http://www.w3.org/2000/svg" width="24" height="24" style=""><rect id="backgroundrect" width="100%" height="100%" x="0" y="0" fill="none" stroke="none"/>
    
<g class="currentLayer" style=""><title>Layer 1</title><g fill="#ffffff" id="svg_1" class="selected" fill-opacity="1">
        <path d="M16.286,19.51699999332428 h-2.118 c0,1.131 -0.542,2.01 -1.009,2.01 H3.77 c-0.466,0 -1.009,-0.8790000000000001 -1.009,-2.01 V5.126999993324279 c0,-1.1320000000000001 0.543,-2.01 1.01,-2.01 h9.39 c0.466,0 1.008,0.8780000000000001 1.008,2.01 h2.117 c0,-2.394 -1.373,-4.27 -3.126,-4.27 H3.77 C2.015,0.8569999933242798 0.6420000000000001,2.73399999332428 0.6420000000000001,5.126999993324279 v14.39 c0,2.3930000000000002 1.374,4.269 3.127,4.269 h9.39 c1.754,0 3.127,-1.8760000000000001 3.127,-4.27 z" id="svg_2" fill="#ffffff" fill-opacity="1"/>
        <path d="M17.468,8.85699999332428 c0,0.28900000000000003 0.10400000000000001,0.5780000000000001 0.31000000000000005,0.798 l1.326,1.4140000000000001 H8.332 c-0.5850000000000001,0 -1.06,0.506 -1.06,1.13 c0,0.6230000000000001 0.47500000000000003,1.13 1.06,1.13 h10.844 l-1.397,1.49 c-0.20700000000000002,0.22000000000000003 -0.31000000000000005,0.51 -0.31000000000000005,0.798 c0,0.28900000000000003 0.10300000000000001,0.5780000000000001 0.31000000000000005,0.799 c0.41300000000000003,0.44000000000000006 1.083,0.44000000000000006 1.497,0 l3.161,-3.373 c0.20700000000000002,-0.22000000000000003 0.31000000000000005,-0.509 0.31000000000000005,-0.798 v-0.008000000000000002 v-0.009000000000000003 c0,-0.28900000000000003 -0.10300000000000001,-0.5770000000000001 -0.31000000000000005,-0.798 L19.276,8.056999993324279 c-0.41400000000000003,-0.44100000000000006 -1.084,-0.44100000000000006 -1.497,0 c-0.20700000000000002,0.22000000000000003 -0.31000000000000005,0.51 -0.31000000000000005,0.799 z" id="svg_3" fill="#ffffff" fill-opacity="1"/>
    </g></g></svg>