<svg xmlns="http://www.w3.org/2000/svg" width="20" height="20" viewBox="0 0 20 20">
    <g fill="#E4F5FF">
        <path d="M16.19 5.876l-.434-2.406c-.134-.747-.726-1.32-1.472-1.426L11.877 1.7 9.881.309C9.576.096 9.22-.004 8.869 0c-.248-.004-.497.042-.734.146-.123.054-.24.123-.35.205L5.843 1.82l-2.39.437c-.134.024-.264.065-.387.12-.551.241-.946.764-1.03 1.363l-.34 2.421L.311 8.172c-.43.624-.414 1.452.039 2.057l1.46 1.955.434 2.406c.12.664.6 1.19 1.23 1.373h.061c.076.02.153.04.234.052l2.405.344 1.464 1.02-.056-.001.539.376c.31.217.684.321 1.055.309.366-.001.731-.119 1.04-.351l1.941-1.469 2.391-.437c.6-.11 1.092-.518 1.315-1.09.048-.126.083-.258.102-.395l.341-2.42 1.384-2.01c.077-.113.141-.234.19-.36.22-.563.13-1.215-.23-1.698l-1.46-1.957zm-7.195 9.05c-1.489-.008-2.975-.582-4.111-1.726-2.29-2.303-2.29-6.038 0-8.342 1.139-1.147 2.63-1.721 4.123-1.727 3.222.017 5.83 2.65 5.83 5.898 0 3.252-2.615 5.887-5.842 5.898z" transform="translate(1 1)"/>
        <path d="M13.02 6.76c-.345-.346-.903-.347-1.247 0l-3.257 3.274-1.76-1.77c-.345-.346-.903-.346-1.248.001-.344.346-.344.908 0 1.254l2.385 2.397c.172.173.397.26.623.26.226 0 .452-.087.624-.26l3.88-3.902c.344-.347.344-.908 0-1.254z" transform="translate(1 1)"/>
    </g>
</svg>
