<svg xmlns="http://www.w3.org/2000/svg" width="20" height="20" viewBox="0 0 20 20">
    <g fill="#92ABBA" fill-rule="nonzero">
        <path d="M17.19 6.876l-.434-2.406a1.748 1.748 0 0 0-1.472-1.426L12.877 2.7l-1.996-1.392A1.73 1.73 0 0 0 9.869 1a1.735 1.735 0 0 0-1.084.351L6.843 2.82l-2.39.437a1.725 1.725 0 0 0-.387.12 1.768 1.768 0 0 0-1.03 1.363l-.34 2.421-1.384 2.011a1.764 1.764 0 0 0 .039 2.057l1.46 1.955.434 2.406a1.75 1.75 0 0 0 1.23 1.373h.061c.076.02.153.04.234.052l2.405.344 1.464 1.02-.056-.001.539.376c.31.217.684.321 1.055.309a1.733 1.733 0 0 0 1.04-.351l1.941-1.469 2.391-.437a1.74 1.74 0 0 0 1.315-1.09c.048-.126.083-.258.102-.395l.341-2.42 1.384-2.01a1.78 1.78 0 0 0-.039-2.058L17.19 6.876zm-7.195 9.05A5.822 5.822 0 0 1 5.884 14.2a5.925 5.925 0 0 1 0-8.342 5.824 5.824 0 0 1 4.123-1.727c3.222.017 5.83 2.65 5.83 5.898 0 3.252-2.615 5.887-5.842 5.898z"/>
        <path d="M14.02 7.76a.878.878 0 0 0-1.247 0l-3.257 3.274-1.76-1.77a.878.878 0 0 0-1.248.001.89.89 0 0 0 0 1.254l2.385 2.397a.878.878 0 0 0 1.247 0l3.88-3.902a.89.89 0 0 0 0-1.254z"/>
    </g>
</svg>
