<svg xmlns="http://www.w3.org/2000/svg" width="20" height="20" viewBox="0 0 20 20">
    <path fill="none" stroke="#92ABBA" stroke-width="2" d="M10.006 1.643c.84 0 1.552.62 1.665 1.453l.005.033c.03.227.002.45-.076.649.583.15 1.133.38 1.64.677.06-.132.146-.257.255-.367.044-.044.09-.085.14-.122l.033-.025c.671-.506 1.613-.44 2.208.154.594.594.658 1.536.15 2.205l-.02.026c-.135.178-.306.311-.495.398.306.511.542 1.072.698 1.665.129-.046.27-.07.416-.071.062 0 .124.004.186.013l.04.005c.833.117 1.452.83 1.452 1.67s-.62 1.552-1.453 1.665l-.033.005c-.204.027-.403.007-.586-.053-.147.596-.376 1.16-.675 1.679.114.058.222.136.318.231.044.044.085.09.122.14l.025.033c.506.671.44 1.613-.154 2.208-.594.594-1.536.658-2.205.15l-.026-.02c-.154-.117-.275-.262-.361-.421-.507.304-1.06.539-1.647.692.035.115.054.237.054.364 0 .062-.004.124-.013.186l-.005.04c-.117.833-.83 1.452-1.67 1.452s-1.552-.62-1.665-1.453l-.005-.033c-.027-.198-.008-.392.048-.57-.582-.157-1.133-.395-1.638-.703-.058.113-.135.219-.23.314-.043.044-.09.085-.14.122l-.032.025c-.671.506-1.613.44-2.208-.154-.594-.594-.658-1.536-.15-2.205l.02-.026c.134-.176.302-.308.489-.395-.296-.516-.523-1.08-.668-1.675-.137.05-.285.078-.44.078-.062 0-.124-.004-.186-.013l-.04-.005c-.833-.117-1.452-.83-1.452-1.67s.62-1.552 1.453-1.665l.033-.005c.23-.031.455 0 .657.079.152-.592.387-1.152.69-1.665-.146-.06-.284-.152-.404-.271-.044-.044-.085-.09-.122-.14l-.025-.033c-.506-.671-.44-1.613.154-2.208.594-.594 1.536-.658 2.205-.15l.026.02c.186.142.324.323.41.523.503-.303 1.053-.536 1.634-.69-.058-.144-.09-.302-.09-.468 0-.062.004-.124.013-.186l.005-.04c.117-.833.83-1.452 1.67-1.452zm.02 10.472c1.116 0 2.026-.922 2.026-2.065 0-1.143-.91-2.065-2.026-2.065-1.117 0-2.027.922-2.027 2.065 0 1.143.91 2.065 2.027 2.065z"/>
</svg>
