<svg xmlns="http://www.w3.org/2000/svg" width="22" height="23" viewBox="0 0 22 23">
    <g fill="#FFF">
        <path d="M21.86 6.573C21.664 6.304 16.98 0 11 0 5.019 0 .336 6.304.14 6.573c-.187.254-.187.6 0 .854C.336 7.696 5.019 14 11 14c5.98 0 10.664-6.304 10.86-6.573.187-.254.187-.6 0-.854zM11 12.552c-4.406 0-8.221-4.185-9.35-5.552C2.776 5.63 6.584 1.448 11 1.448c4.405 0 8.22 4.184 9.35 5.552-1.127 1.37-4.935 5.552-9.35 5.552z" transform="translate(0 4.52)"/>
        <path d="M10.71 2.917c-2.394 0-4.342 1.962-4.342 4.375 0 2.412 1.948 4.375 4.343 4.375 2.394 0 4.342-1.963 4.342-4.375 0-2.413-1.948-4.375-4.342-4.375zm0 7.291c-1.596 0-2.894-1.308-2.894-2.916 0-1.609 1.298-2.917 2.895-2.917 1.596 0 2.894 1.308 2.894 2.917 0 1.608-1.298 2.916-2.894 2.916z" transform="translate(0 4.52)"/>
    </g>
</svg>
