<svg xmlns="http://www.w3.org/2000/svg" width="20" height="20" viewBox="0 0 20 20">
    <g fill="#92ABBA" fill-rule="evenodd" stroke="#92ABBA" stroke-linecap="round" stroke-linejoin="round" stroke-width=".5">
        <path d="M8.036 12.69a.694.694 0 0 1 0 .984l-4.279 4.279s2.472.036 2.755.19c.283.153.374.816 0 1.103-.375.288-4.045-.003-4.486-.444-.44-.441-.619-4.304-.488-4.636.131-.333.74-.353 1.004.006s.333 2.9.333 2.9l4.279-4.28a.698.698 0 0 1 .985 0l-.103-.103zM11.975 8.036c.272.272.71.275.985 0l4.279-4.279s.035 2.472.189 2.755c.153.283.816.374 1.104 0 .288-.375-.004-4.045-.445-4.486-.44-.44-4.303-.619-4.636-.488-.332.131-.353.74.006 1.004.36.264 2.9.333 2.9.333l-4.279 4.279a.698.698 0 0 0 0 .985l-.103-.103zM11.964 12.69a.694.694 0 0 0 0 .984l4.279 4.279s-2.472.036-2.755.19c-.283.153-.374.816 0 1.103.375.288 4.045-.003 4.486-.444.44-.441.619-4.304.488-4.636-.131-.333-.74-.353-1.004.006s-.333 2.9-.333 2.9l-4.279-4.28a.698.698 0 0 0-.985 0l.103-.103zM8.025 8.036a.694.694 0 0 1-.985 0L2.761 3.757s-.035 2.472-.189 2.755c-.153.283-.816.374-1.104 0-.288-.375.004-4.045.445-4.486.44-.44 4.303-.619 4.636-.488.332.131.353.74-.006 1.004-.36.264-2.9.333-2.9.333l4.279 4.279a.698.698 0 0 1 0 .985l.103-.103z"/>
    </g>
</svg>
