<svg xmlns="http://www.w3.org/2000/svg" width="16" height="17" viewBox="0 0 16 17">
    <g fill="#8DA1AD">
        <path d="M15.659 14.154L14.6 11.075c.51-1.042.78-2.202.781-3.368.003-2.029-.781-3.947-2.209-5.4C11.746.851 9.843.032 7.816 0 5.714-.032 3.74.768 2.253 2.254.821 3.687.027 5.576.002 7.594c-.025 2.019.319 3.817 2.647 5.94 1.196 1.091 2.944 1.709 5.244 1.852 1.461-.197 2.52-.456 3.177-.778l3.078 1.058c.128.044.26.066.39.066.309 0 .61-.122.837-.35.324-.324.432-.794.284-1.228zm-1.05.461c-.031.031-.068.04-.109.025l-3.295-1.132c-.057-.02-.116-.03-.176-.03-.087 0-.174.022-.253.063-.94.498-2.004.762-3.074.764h-.01c-3.587 0-6.55-2.915-6.607-6.503-.028-1.807.659-3.505 1.935-4.782 1.276-1.276 2.973-1.963 4.779-1.935 3.59.057 6.505 3.027 6.5 6.62-.002 1.071-.266 2.135-.764 3.076-.07.132-.082.288-.033.43l1.132 3.296c.014.041.005.078-.025.108z"/>
        <path d="M10.775 4.69H4.397c-.295 0-.535.247-.535.551 0 .305.24.552.535.552h6.378c.296 0 .535-.247.535-.552 0-.304-.24-.551-.535-.551zM10.775 7.172H4.397c-.295 0-.535.247-.535.552 0 .305.24.552.535.552h6.378c.296 0 .535-.247.535-.552 0-.305-.24-.552-.535-.552zM8.295 9.38h-3.9c-.295 0-.533.246-.533.551 0 .305.238.552.532.552h3.901c.294 0 .533-.247.533-.552 0-.305-.239-.552-.533-.552z"/>
    </g>
</svg>
