<svg xmlns="http://www.w3.org/2000/svg" width="16" height="16" viewBox="0 0 16 16">
    <path fill="#8DA1AD" fill-rule="nonzero" d="M11.625 3.139C9.213 3.139 7.25 5.319 7.25 8c0 1.761-1.29 3.194-2.875 3.194S1.5 9.761 1.5 8s1.29-3.194 2.875-3.194c.572 0 1.125.186 1.598.538.158.118.306.253.438.401a.713.713 0 0 0 1.061.003.901.901 0 0 0 .002-1.179 4.55 4.55 0 0 0-.666-.61 4.052 4.052 0 0 0-2.433-.82C1.963 3.14 0 5.32 0 8c0 2.68 1.963 4.861 4.375 4.861S8.75 10.681 8.75 8c0-1.761 1.29-3.194 2.875-3.194S14.5 6.239 14.5 8s-1.29 3.194-2.875 3.194c-.768 0-1.49-.332-2.032-.935a.714.714 0 0 0-1.061 0 .877.877 0 0 0-.22.59c0 .222.078.432.22.589.826.918 1.925 1.423 3.093 1.423C14.037 12.861 16 10.681 16 8c0-2.68-1.963-4.861-4.375-4.861z"/>
</svg>
