<svg xmlns="http://www.w3.org/2000/svg" width="48" height="34" viewBox="0 0 48 34">
    <defs>
        <filter id="a" width="140%" height="159.3%" x="-20%" y="-29.6%" filterUnits="objectBoundingBox">
            <feOffset in="SourceAlpha" result="shadowOffsetOuter1"/>
            <feGaussianBlur in="shadowOffsetOuter1" result="shadowBlurOuter1" stdDeviation="2"/>
            <feColorMatrix in="shadowBlurOuter1" result="shadowMatrixOuter1" values="0 0 0 0 0 0 0 0 0 0.964705882 0 0 0 0 0.823529412 0 0 0 0.5 0"/>
            <feMerge>
                <feMergeNode in="shadowMatrixOuter1"/>
                <feMergeNode in="SourceGraphic"/>
            </feMerge>
        </filter>
    </defs>
    <g fill="none" fill-rule="evenodd" filter="url(#a)" transform="translate(4 4)">
        <path fill="#000" d="M39.624 7.364C34.414 2.616 27.555.001 20.309 0h-.003C13.06 0 6.201 2.616.991 7.364A1.118 1.118 0 0 0 .96 9.01c.241.236.563.355.886.355.308 0 .616-.108.854-.325 4.75-4.33 11.002-6.713 17.608-6.713 6.605 0 12.859 2.384 17.606 6.713a1.282 1.282 0 0 0 1.74-.03c.227-.22.352-.519.346-.828a1.13 1.13 0 0 0-.376-.816z"/>
        <path fill="#00F6D2" d="M39.624 7.364C34.414 2.616 27.555.001 20.309 0h-.003C13.06 0 6.201 2.616.991 7.364A1.118 1.118 0 0 0 .96 9.01c.241.236.563.355.886.355.308 0 .616-.108.854-.325 4.75-4.33 11.002-6.713 17.608-6.713 6.605 0 12.859 2.384 17.606 6.713a1.282 1.282 0 0 0 1.74-.03c.227-.22.352-.519.346-.828a1.13 1.13 0 0 0-.376-.816z"/>
        <path fill="#000" fill-rule="nonzero" d="M20.2 8.678c-8.614 0-15.067 5.433-17.441 7.768a1.096 1.096 0 0 0 0 1.586c2.374 2.336 8.826 7.769 17.44 7.769s15.066-5.433 17.44-7.769a1.096 1.096 0 0 0 0-1.586C35.266 14.111 28.814 8.68 20.2 8.68v-.001zm-7.945 4.068a8.716 8.716 0 0 0-1.322 4.617c0 1.533.398 2.996 1.12 4.278-2.91-1.327-5.2-3.1-6.649-4.402 1.482-1.33 3.846-3.158 6.851-4.493zM17.02 23.21c-2.227-1.133-3.606-3.36-3.606-5.847a6.555 6.555 0 0 1 4.516-6.231 17.762 17.762 0 0 1 3.975-.062c2.783.823 4.722 3.403 4.722 6.293a6.583 6.583 0 0 1-3.772 5.931c-.878.132-1.766.198-2.655.2a18.19 18.19 0 0 1-3.18-.284zm10.826-1.348a8.7 8.7 0 0 0 1.26-4.499 8.64 8.64 0 0 0-1.465-4.833c3.245 1.348 5.79 3.305 7.354 4.71-1.53 1.374-4.002 3.277-7.15 4.622z"/>
        <path fill="#00F6D2" d="M20.2 8.678c-8.614 0-15.067 5.433-17.441 7.768a1.096 1.096 0 0 0 0 1.586c2.374 2.336 8.826 7.769 17.44 7.769s15.066-5.433 17.44-7.769a1.096 1.096 0 0 0 0-1.586C35.266 14.111 28.814 8.68 20.2 8.68v-.001zm-7.945 4.068a8.716 8.716 0 0 0-1.322 4.617c0 1.533.398 2.996 1.12 4.278-2.91-1.327-5.2-3.1-6.649-4.402 1.482-1.33 3.846-3.158 6.851-4.493zM17.02 23.21c-2.227-1.133-3.606-3.36-3.606-5.847a6.555 6.555 0 0 1 4.516-6.231 17.762 17.762 0 0 1 3.975-.062c2.783.823 4.722 3.403 4.722 6.293a6.583 6.583 0 0 1-3.772 5.931c-.878.132-1.766.198-2.655.2a18.19 18.19 0 0 1-3.18-.284zm10.826-1.348a8.7 8.7 0 0 0 1.26-4.499 8.64 8.64 0 0 0-1.465-4.833c3.245 1.348 5.79 3.305 7.354 4.71-1.53 1.374-4.002 3.277-7.15 4.622z"/>
        <g>
            <path fill="#000" d="M23.311 17.418c-1.76 0-3.19-1.252-3.19-2.794-1.76 0-3.19 1.252-3.19 2.794s1.43 2.794 3.19 2.794c1.762 0 3.19-1.252 3.19-2.794z"/>
            <path fill="#00F6D2" d="M23.311 17.418c-1.76 0-3.19-1.252-3.19-2.794-1.76 0-3.19 1.252-3.19 2.794s1.43 2.794 3.19 2.794c1.762 0 3.19-1.252 3.19-2.794z"/>
        </g>
    </g>
</svg>
