<svg xmlns="http://www.w3.org/2000/svg" width="48" height="30" viewBox="0 0 48 30">
    <defs>
        <filter id="a" width="140%" height="172.7%" x="-20%" y="-36.4%" filterUnits="objectBoundingBox">
            <feOffset in="SourceAlpha" result="shadowOffsetOuter1"/>
            <feGaussianBlur in="shadowOffsetOuter1" result="shadowBlurOuter1" stdDeviation="2"/>
            <feColorMatrix in="shadowBlurOuter1" result="shadowMatrixOuter1" values="0 0 0 0 0 0 0 0 0 0.964705882 0 0 0 0 0.823529412 0 0 0 0.5 0"/>
            <feMerge>
                <feMergeNode in="shadowMatrixOuter1"/>
                <feMergeNode in="SourceGraphic"/>
            </feMerge>
        </filter>
    </defs>
    <g fill="none" fill-rule="evenodd" filter="url(#a)" transform="translate(4 4)">
        <path fill="#000" fill-rule="nonzero" d="M35.087 0C37.787 0 40 2.609 40 5.791V16c0 3.186-2.212 5.79-4.913 5.79H4.912C2.214 21.79 0 19.185 0 15.998V5.79C0 2.61 2.212 0 4.913 0h30.174zm-.438 2.377H5.793c-2.39 0-3.486.942-3.486 3.43v10.408c0 2.491 1.097 3.198 3.486 3.198h28.856c2.39 0 3.044-.707 3.044-3.198V5.807c0-2.488-.655-3.43-3.044-3.43z"/>
        <path fill="#00F6D2" d="M35.087 0C37.787 0 40 2.609 40 5.791V16c0 3.186-2.212 5.79-4.913 5.79H4.912C2.214 21.79 0 19.185 0 15.998V5.79C0 2.61 2.212 0 4.913 0h30.174zm-.438 2.377H5.793c-2.39 0-3.486.942-3.486 3.43v10.408c0 2.491 1.097 3.198 3.486 3.198h28.856c2.39 0 3.044-.707 3.044-3.198V5.807c0-2.488-.655-3.43-3.044-3.43z"/>
        <path fill="#000" d="M11.644 12.44l1.027 1.227-1.779 1.466-.729-1.466c-.108-.21-.276-.62-.512-1.228-.258.67-.43 1.076-.516 1.228l-.74 1.466-1.828-1.466 1.106-1.228c.311-.337.613-.627.91-.865-.401-.044-.8-.109-1.196-.194l-1.531-.273.71-2.29 1.373.686c.145.072.505.297 1.077.671a18.958 18.958 0 0 1-.237-1.356l-.195-1.64h2.18l-.176 1.64a9.54 9.54 0 0 1-.248 1.356c.25-.139.417-.23.496-.281.275-.169.488-.285.631-.36l1.374-.716.68 2.29-1.519.348c-.278.059-.69.097-1.238.12.372.318.662.604.88.864z"/>
        <path fill="#00F6D2" d="M11.644 12.44l1.027 1.227-1.779 1.466-.729-1.466c-.108-.21-.276-.62-.512-1.228-.258.67-.43 1.076-.516 1.228l-.74 1.466-1.828-1.466 1.106-1.228c.311-.337.613-.627.91-.865-.401-.044-.8-.109-1.196-.194l-1.531-.273.71-2.29 1.373.686c.145.072.505.297 1.077.671a18.958 18.958 0 0 1-.237-1.356l-.195-1.64h2.18l-.176 1.64a9.54 9.54 0 0 1-.248 1.356c.25-.139.417-.23.496-.281.275-.169.488-.285.631-.36l1.374-.716.68 2.29-1.519.348c-.278.059-.69.097-1.238.12.372.318.662.604.88.864z"/>
        <g>
            <path fill="#000" d="M21.596 12.44l1.05 1.227-1.816 1.465-.744-1.465c-.11-.21-.282-.62-.522-1.228-.265.67-.44 1.076-.527 1.228l-.757 1.465-1.866-1.465 1.129-1.228c.289-.312.6-.602.93-.865-.41-.044-.818-.109-1.222-.194l-1.564-.273.726-2.29 1.403.686c.146.072.516.297 1.099.671a16.503 16.503 0 0 1-.243-1.356l-.2-1.638H20.7l-.181 1.637a9.785 9.785 0 0 1-.251 1.357c.254-.139.424-.23.505-.281.28-.169.498-.285.645-.36l1.403-.716.697 2.29-1.553.348c-.284.059-.704.097-1.264.12.376.318.674.604.895.864z"/>
            <path fill="#00F6D2" d="M21.596 12.44l1.05 1.227-1.816 1.465-.744-1.465c-.11-.21-.282-.62-.522-1.228-.265.67-.44 1.076-.527 1.228l-.757 1.465-1.866-1.465 1.129-1.228c.289-.312.6-.602.93-.865-.41-.044-.818-.109-1.222-.194l-1.564-.273.726-2.29 1.403.686c.146.072.516.297 1.099.671a16.503 16.503 0 0 1-.243-1.356l-.2-1.638H20.7l-.181 1.637a9.785 9.785 0 0 1-.251 1.357c.254-.139.424-.23.505-.281.28-.169.498-.285.645-.36l1.403-.716.697 2.29-1.553.348c-.284.059-.704.097-1.264.12.376.318.674.604.895.864z"/>
        </g>
        <g fill-rule="nonzero">
            <path fill="#000" d="M33.274 14.498c0 .51-.4.928-.887.928h-4.963a.91.91 0 0 1-.887-.928v-3.129c0-.51.4-.927.887-.927h.12V9.238c0-1.364 1.059-2.473 2.36-2.473 1.302 0 2.363 1.109 2.363 2.473v1.204h.119c.487 0 .887.417.887.927v3.129h.001zm-3.37-6.496c-.65 0-1.178.555-1.178 1.236v1.204h2.359V9.238c0-.681-.531-1.236-1.181-1.236z"/>
            <path fill="#00F6D2" d="M33.274 14.498c0 .51-.4.928-.887.928h-4.963a.91.91 0 0 1-.887-.928v-3.129c0-.51.4-.927.887-.927h.12V9.238c0-1.364 1.059-2.473 2.36-2.473 1.302 0 2.363 1.109 2.363 2.473v1.204h.119c.487 0 .887.417.887.927v3.129h.001zm-3.37-6.496c-.65 0-1.178.555-1.178 1.236v1.204h2.359V9.238c0-.681-.531-1.236-1.181-1.236z"/>
        </g>
    </g>
</svg>
