<svg xmlns="http://www.w3.org/2000/svg" width="16" height="16" viewBox="0 0 16 16">
    <g fill="#8DA1AD" fill-rule="nonzero">
        <path d="M15.659 14.154L14.6 11.075c.51-1.042.78-2.202.781-3.368a7.65 7.65 0 0 0-2.209-5.4A7.636 7.636 0 0 0 7.816 0a7.63 7.63 0 0 0-5.563 2.253 7.633 7.633 0 0 0-2.251 5.34c-.025 2.019.319 3.817 2.647 5.94 1.196 1.091 2.944 1.709 5.244 1.852 1.461-.197 2.52-.456 3.177-.778l3.078 1.058a1.18 1.18 0 0 0 1.227-.284c.324-.324.432-.794.284-1.228zm-1.05.461a.098.098 0 0 1-.109.025l-3.295-1.132a.541.541 0 0 0-.429.033 6.617 6.617 0 0 1-3.074.764h-.01c-3.587 0-6.55-2.915-6.607-6.503A6.562 6.562 0 0 1 3.02 3.02a6.556 6.556 0 0 1 4.779-1.935c3.59.057 6.505 3.027 6.5 6.62a6.626 6.626 0 0 1-.764 3.076.542.542 0 0 0-.033.43l1.132 3.296a.098.098 0 0 1-.025.108z"/>
        <path d="M10.775 4.69H4.397a.544.544 0 0 0-.535.551c0 .305.24.552.535.552h6.378a.544.544 0 0 0 .535-.552.544.544 0 0 0-.535-.551zM10.775 7.172H4.397a.544.544 0 0 0-.535.552c0 .305.24.552.535.552h6.378a.544.544 0 0 0 .535-.552.544.544 0 0 0-.535-.552zM8.295 9.38h-3.9a.542.542 0 0 0-.533.551c0 .305.238.552.532.552h3.901a.542.542 0 0 0 .533-.552.542.542 0 0 0-.533-.552z"/>
    </g>
</svg>
