<svg xmlns="http://www.w3.org/2000/svg" width="20" height="21" viewBox="0 0 20 21">
    <g fill="#92ABBA" fill-rule="evenodd">
        <g fill-rule="nonzero">
            <path d="M19.873 5.975C19.694 5.731 15.437 0 10 0 4.563 0 .305 5.731.127 5.975c-.17.232-.17.546 0 .777.178.244 4.436 5.975 9.873 5.975 5.437 0 9.694-5.731 9.873-5.975.17-.231.17-.545 0-.777zM10 11.411c-4.005 0-7.474-3.804-8.5-5.048C2.524 5.12 5.985 1.317 10 1.317c4.005 0 7.473 3.803 8.5 5.047-1.025 1.245-4.486 5.047-8.5 5.047z" transform="translate(0 4.11)"/>
            <path d="M9.737 2.652c-2.177 0-3.948 1.784-3.948 3.977 0 2.193 1.771 3.977 3.948 3.977 2.176 0 3.947-1.784 3.947-3.977 0-2.193-1.77-3.977-3.947-3.977zm0 6.628c-1.451 0-2.632-1.19-2.632-2.651 0-1.462 1.18-2.652 2.632-2.652 1.45 0 2.631 1.19 2.631 2.652 0 1.462-1.18 2.651-2.631 2.651z" transform="translate(0 4.11)"/>
        </g>
        <path d="M18.207 3.897c.323.384.273.958-.112 1.28L2.775 18.034c-.385.323-.959.273-1.282-.112-.322-.384-.272-.958.112-1.28L16.926 3.785c.385-.323.958-.273 1.281.112z"/>
    </g>
</svg>
