<svg xmlns="http://www.w3.org/2000/svg" xmlns:xlink="http://www.w3.org/1999/xlink" width="22" height="23" viewBox="0 0 22 23">
    <defs>
        <path id="a" d="M1.5 0h19a1.5 1.5 0 1 1 0 3h-19a1.5 1.5 0 1 1 0-3z"/>
        <path id="c" d="M1.5 0h19a1.5 1.5 0 1 1 0 3h-19a1.5 1.5 0 1 1 0-3z"/>
        <path id="e" d="M1.5 0h19a1.5 1.5 0 1 1 0 3h-19a1.5 1.5 0 0 1 0-3z"/>
    </defs>
    <g fill="none" fill-rule="evenodd">
        <g transform="translate(0 4)">
            <mask id="b" fill="#fff">
                <use xlink:href="#a"/>
            </mask>
            <path fill="#FFF" d="M-5-5h32V8H-5z" mask="url(#b)"/>
        </g>
        <g transform="translate(0 10)">
            <mask id="d" fill="#fff">
                <use xlink:href="#c"/>
            </mask>
            <path fill="#FFF" d="M-5-5h32V8H-5z" mask="url(#d)"/>
        </g>
        <g transform="translate(0 16)">
            <mask id="f" fill="#fff">
                <use xlink:href="#e"/>
            </mask>
            <path fill="#FFF" d="M-5-5h32V8H-5z" mask="url(#f)"/>
        </g>
    </g>
</svg>
